# xmcd
#
# Track frame offsets:
#	150
#	31441
#	53318
#	74452
#	97555
#	120035
#	146631
#	176539
#	203624
#	211868
#	239822
#	252158
#
# Disc length: 3701 seconds
#
# Revision: 2
# Processed by: cddbd v1.5.1PL2 Copyright (c) Steve Scherf et al.
# Submitted via: EasyCDDAExtractor 8.0.2.1
#
DISCID=980e730c
DTITLE=Deep Purple - Intersport Arena Linz 21-02-06 Disc 1
DYEAR=2006
DGENRE=Hard Rock
TTITLE0=Pictures Of Home
TTITLE1=Things I Never Said
TTITLE2=Wrong Man
TTITLE3=Ted The Mechanic
TTITLE4=Living Wreck
TTITLE5=Rapture Of The Deep
TTITLE6=Before Time Bega
TTITLE7=Mary Long
TTITLE8=Contact Lost
TTITLE9=Steve Morse Solo
TTITLE10=Well Dressed Guitar
TTITLE11=Lazy
EXTD=
EXTT0=
EXTT1=
EXTT2=
EXTT3=
EXTT4=
EXTT5=
EXTT6=
EXTT7=
EXTT8=
EXTT9=
EXTT10=
EXTT11=
PLAYORDER=
